Coordinates
version=1
nRows=26
nColumns=24
inDegrees=yes

Units are S.I. units (second, meters, Newtons, ...)
Angles are in degrees.

endheader
time	pelvis_tilt	pelvis_list	pelvis_rotation	pelvis_tx	pelvis_ty	pelvis_tz	hip_flexion_r	hip_adduction_r	hip_rotation_r	knee_angle_r	ankle_angle_r	subtalar_angle_r	mtp_angle_r	hip_flexion_l	hip_adduction_l	hip_rotation_l	knee_angle_l	ankle_angle_l	subtalar_angle_l	mtp_angle_l	lumbar_extension	lumbar_bending	lumbar_rotation
      0.57500000	     -0.01707973	      5.70037437	     -2.20902727	     -0.82324178	      1.05452463	      0.34174668	     22.78133787	     -1.40229763	     -7.84824084	     -0.17081510	      1.30006803	     -0.22707920	      0.11733822	    -15.03641753	     11.80395953	      2.39111211	     -2.34836521	      5.93125504	     -2.83606620	      0.10360457	      3.59084435	     -3.77403572	     -1.62173782
      0.57916667	     -0.03098361	      5.71818907	     -2.21924558	     -0.81760558	      1.05410665	      0.34177269	     22.69942959	     -1.32731430	     -7.83232915	     -0.31640401	      1.32440413	     -0.22809691	      0.12566441	    -15.18337930	     11.82937621	      2.39802780	     -2.66971395	      5.91846356	     -2.87114474	      0.10272146	      3.65021506	     -3.75532792	     -1.64732984
      0.58333333	     -0.04359641	      5.72118677	     -2.22150378	     -0.81187823	      1.05372539	      0.34177678	     22.60951993	     -1.24584086	     -7.80578739	     -0.51414331	      1.35889899	     -0.24043935	      0.13519038	    -15.32138979	     11.83648572	      2.39997094	     -3.02295387	      5.89490624	     -2.89513634	      0.10292345	      3.70554806	     -3.73336417	     -1.67088770
      0.58750000	     -0.05719599	      5.72401638	     -2.22054942	     -0.80610420	      1.05336559	      0.34172903	     22.52081020	     -1.17323216	     -7.75288059	     -0.75567075	      1.37993356	     -0.25716575	      0.14357720	    -15.44587620	     11.84328516	      2.41091945	     -3.40220607	      5.86011239	     -2.90064474	      0.10420401	      3.75751800	     -3.70311011	     -1.68893183
      0.59166667	     -0.06630449	      5.72309061	     -2.21015796	     -0.80031620	      1.05303679	      0.34164520	     22.42470486	     -1.10785803	     -7.66994341	     -1.03661738	      1.38627585	     -0.27799216	      0.15209453	    -15.55760287	     11.84464401	      2.41589774	     -3.82096509	      5.81596168	     -2.89675823	      0.10648135	      3.81147433	     -3.66426787	     -1.70564746
      0.59583333	     -0.07011720	      5.72431698	     -2.19640574	     -0.79449463	      1.05274373	      0.34153418	     22.32000604	     -1.05351378	     -7.55809181	     -1.33858427	      1.37309633	     -0.30536794	      0.16123126	    -15.65708072	     11.84707301	      2.41109923	     -4.27426530	      5.75865550	     -2.88161086	      0.11006350	      3.86342178	     -3.61901749	     -1.72268618
      0.60000000	     -0.05886189	      5.71990233	     -2.29746262	     -0.78867508	      1.05243229	      0.34171409	     22.19317430	     -0.94168975	     -7.10724402	     -1.63954821	      1.24316487	     -0.61071312	      0.22554062	    -15.73537453	     11.86000782	      2.10622877	     -4.75274351	      5.53329420	     -2.64497503	      0.14638109	      3.79453692	     -3.57005512	     -1.82252031
      0.60416667	     -0.04381902	      5.70883808	     -2.25803064	     -0.78280741	      1.05224482	      0.34152413	     22.05277094	     -0.90010823	     -6.98350420	     -1.96502646	      1.17793476	     -0.63869226	      0.23437080	    -15.82214325	     11.83983963	      2.13439084	     -5.27479891	      5.50377877	     -2.62349574	      0.15334582	      3.89491698	     -3.53090665	     -1.82059144
      0.60833333	     -0.02390314	      5.65590581	     -2.31698036	     -0.77683484	      1.05205908	      0.34186541	     21.84528426	     -0.74085373	     -6.33142689	     -2.16113232	      0.65188117	     -1.53374789	      0.39935394	    -15.86791227	     11.75845804	      1.71265530	     -5.86508696	      5.50430818	     -1.98094247	      0.31044161	      3.94681503	     -3.52515601	     -1.80822943
      0.61250000	     -0.05809277	      5.65910174	     -2.30437967	     -0.77097509	      1.05183683	      0.34169320	     21.76464625	     -0.71355473	     -6.10465975	     -2.50926785	      0.43159740	     -1.54579363	      0.43557872	    -15.84373668	     11.75492741	      1.64511086	     -6.48180584	      5.37299321	     -1.88371722	      0.34585981	      3.93172532	     -3.39660358	     -1.82410131
      0.61666667	     -0.03750328	      5.63088083	     -2.39186160	     -0.76500859	      1.05168944	      0.34177535	     21.61297288	     -0.61322395	     -5.72868845	     -2.81702283	     -0.08947403	     -1.79734684	      0.52238753	    -15.85905576	     11.72878005	      1.32764541	     -7.10225302	      5.13556870	     -1.52269118	      0.44815526	      4.05035037	     -3.34952310	     -1.81585129
      0.62083333	     -0.07925059	      5.58117129	     -2.39218037	     -0.75900301	      1.05155398	      0.34199804	     21.46405401	     -0.49756666	     -5.14635959	     -3.03831485	     -0.53156176	     -2.57553657	      0.75475710	    -15.76372775	     11.62308591	      0.94787570	     -7.84852005	      5.16641568	     -0.88051573	      0.75280591	      4.13202488	     -3.26825990	     -1.74257106
      0.62500000	     -0.09206710	      5.52547283	     -2.35619265	     -0.75296440	      1.05151388	      0.34184959	     21.31877027	     -0.43123309	     -4.94485464	     -3.33207460	     -0.89801482	     -2.52785581	      0.79761186	    -15.69562710	     11.52971745	      0.73223866	     -8.59506936	      4.91640479	     -0.76171712	      0.81054948	      4.11378754	     -3.15649287	     -1.76141712
      0.62916667	     -0.09572088	      5.46521120	     -2.36977624	     -0.74690853	      1.05150257	      0.34181142	     21.16966480	     -0.34382116	     -4.67425146	     -3.62682364	     -1.41656473	     -2.60252293	      0.84898890	    -15.60645616	     11.43429590	      0.39527824	     -9.38305179	      4.58439979	     -0.46631545	      0.89227291	      4.14787133	     -3.03231857	     -1.78361330
      0.63333333	     -0.08953808	      5.37953994	     -2.37933280	     -0.74078844	      1.05154923	      0.34184763	     20.99061752	     -0.23055608	     -4.36622603	     -3.89181109	     -1.96859395	     -2.82021103	      0.90924035	    -15.50201656	     11.29452298	     -0.00842073	    -10.22530855	      4.26703610	     -0.04065940	      1.00180442	      4.18337727	     -2.90400121	     -1.80151524
      0.63750000	     -0.03192780	      5.28447395	     -2.45739001	     -0.73466932	      1.05167004	      0.34223513	     20.72583750	     -0.06759305	     -3.70263502	     -4.08829748	     -2.69705446	     -3.71273619	      1.09270513	    -15.42680025	     11.12504195	     -0.52022822	    -11.10530636	      4.11302144	      0.95676450	      1.36572179	      4.37944829	     -2.83829789	     -1.75655915
      0.64166667	     -0.04820450	      5.21598496	     -2.41909123	     -0.72862632	      1.05176334	      0.34207951	     20.61293483	     -0.01145258	     -3.61707212	     -4.45673055	     -2.96085506	     -3.76222472	      1.13027317	    -15.23206534	     10.99004872	     -0.84748517	    -12.06906553	      3.85146408	      1.09159615	      1.44040308	      4.27042917	     -2.65472502	     -1.78463030
      0.64583333	      0.01642750	      5.09089262	     -2.47346196	     -0.72241275	      1.05198570	      0.34235504	     20.34750593	      0.15234058	     -3.11336293	     -4.67933396	     -3.72191547	     -4.25281508	      1.28468248	    -15.11768967	     10.77314638	     -1.37182174	    -13.02514383	      3.33209652	      1.96185724	      1.79200260	      4.42602111	     -2.53431033	     -1.76742589
      0.65000000	      0.01332428	      4.99983956	     -2.43700592	     -0.71634390	      1.05215050	      0.34222763	     20.23040210	      0.22454747	     -3.08079208	     -5.08047692	     -3.94201119	     -4.33014103	      1.31843937	    -14.87655303	     10.59317793	     -1.76151144	    -14.10039114	      3.05399685	      2.11946893	      1.87184933	      4.31309017	     -2.34768706	     -1.79643844
      0.65416667	      0.05778947	      4.87434014	     -2.53032579	     -0.71019932	      1.05236752	      0.34278706	     20.00731671	      0.41938202	     -2.48157660	     -5.34659439	     -4.69535820	     -5.34888043	      1.58650574	    -14.65989844	     10.33901283	     -2.44698242	    -15.19939301	      2.64697570	      3.32206021	      2.58856666	      4.42790600	     -2.19721120	     -1.75427152
      0.65833333	      0.12522816	      4.75267612	     -2.53100389	     -0.70408162	      1.05267880	      0.34270266	     19.81929487	      0.51803182	     -2.45527540	     -5.75860840	     -5.04152370	     -5.32348767	      1.66484585	    -14.45606242	     10.11737160	     -2.83930077	    -16.31101534	      1.97272747	      3.66627723	      2.79544131	      4.39698624	     -1.98508940	     -1.77996912
      0.66250000	      0.17964878	      4.61887402	     -2.52899069	     -0.69797005	      1.05300169	      0.34275243	     19.63325672	      0.63808225	     -2.34777904	     -6.15446337	     -5.37887939	     -5.43405431	      1.74734506	    -14.20142738	      9.85479036	     -3.28298241	    -17.49076025	      1.30533752	      4.17100234	      3.03845799	      4.38158202	     -1.78145016	     -1.80529961
      0.66666667	      0.24032022	      4.45977237	     -2.51892006	     -0.69183748	      1.05336330	      0.34285349	     19.43023883	      0.78426847	     -2.23833984	     -6.54371846	     -5.67736801	     -5.61504346	      1.82828866	    -13.92828209	      9.54650442	     -3.72800718	    -18.71309443	      0.64234040	      4.71133693	      3.29846230	      4.35088403	     -1.56623714	     -1.82853100
      0.67083333	      0.33016072	      4.26984812	     -2.54034060	     -0.68573999	      1.05376896	      0.34339883	     19.15383178	      1.01031066	     -1.81745432	     -6.84581928	     -6.13309208	     -6.50963417	      2.18501583	    -13.64704299	      9.15637002	     -4.30434931	    -20.02168767	      0.21858833	      5.63469418	      4.54896242	      4.33602759	     -1.43878818	     -1.77426278
      0.67500000	      0.38712882	      4.10768848	     -2.50366424	     -0.67970069	      1.05415445	      0.34328115	     18.98259435	      1.12358001	     -1.92631151	     -7.29858607	     -6.28369090	     -6.36752042	      2.25466670	    -13.31426452	      8.84119956	     -4.60882253	    -21.31593750	     -0.65468335	      5.96352047	      4.78059478	      4.27150068	     -1.12182711	     -1.81385112
      0.67916667	      0.47579621	      3.93053602	     -2.37805339	     -0.67379732	      1.05464643	      0.34334766	     18.74110055	      1.25344032	     -1.97443515	     -7.64980730	     -6.84793307	     -6.86765599	      7.39651354	    -12.96541597	      8.44772772	     -4.85680585	    -22.65491871	     -1.90073020	      6.04556962	     24.42361293	      4.12454313	     -0.99507199	     -1.52192430
